<svg version="1.1" xmlns="http://www.w3.org/2000/svg" xmlns:xlink="http://www.w3.org/1999/xlink" width="54px" height="54px" viewBox="0,0,256,256"><g fill="#222831" fill-rule="nonzero" stroke="none" stroke-width="1" stroke-linecap="butt" stroke-linejoin="miter" stroke-miterlimit="10" stroke-dasharray="" stroke-dashoffset="0" font-family="none" font-weight="none" font-size="none" text-anchor="none" style="mix-blend-mode: normal"><g transform="scale(4.74074,4.74074)"><g><path d="M41.824,0h-29.648c-6.714,0 -12.176,5.462 -12.176,12.176v29.648c0,6.714 5.462,12.176 12.176,12.176h29.648c6.714,0 12.176,-5.462 12.176,-12.176v-29.648c0,-6.714 -5.462,-12.176 -12.176,-12.176zM52,41.824c0,5.611 -4.565,10.176 -10.176,10.176h-29.648c-5.611,0 -10.176,-4.565 -10.176,-10.176v-29.648c0,-5.611 4.565,-10.176 10.176,-10.176h29.648c5.611,0 10.176,4.565 10.176,10.176z"></path><path d="M19.84,12l-8.24,28h3.12l2.64,-9.04h8.32l2.76,9.04h3.24l-8.52,-28zM18.12,28l3.36,-11.36l3.48,11.36z"></path><path d="M36.859,11.6c-0.44,0 -0.827,0.167 -1.16,0.5c-0.334,0.334 -0.5,0.714 -0.5,1.141c0,0.427 0.166,0.807 0.5,1.14c0.333,0.334 0.72,0.5 1.16,0.5c0.44,0 0.82,-0.16 1.14,-0.479c0.32,-0.32 0.48,-0.707 0.48,-1.16c0,-0.453 -0.159,-0.842 -0.479,-1.162c-0.32,-0.32 -0.7,-0.48 -1.141,-0.48z"></path><rect x="35.359" y="19.96" width="2.88" height="20.04"></rect></g></g></g></svg>