<svg version="1.1" xmlns="http://www.w3.org/2000/svg" xmlns:xlink="http://www.w3.org/1999/xlink" width="800px" height="800px" viewBox="0,0,256,256"><g fill="#222831" fill-rule="nonzero" stroke="none" stroke-width="1" stroke-linecap="butt" stroke-linejoin="miter" stroke-miterlimit="10" stroke-dasharray="" stroke-dashoffset="0" font-family="none" font-weight="none" font-size="none" text-anchor="none" style="mix-blend-mode: normal"><g transform="scale(4.74074,4.74074)"><g><path d="M41.824,0h-29.648c-6.714,0 -12.176,5.462 -12.176,12.176v29.648c0,6.714 5.462,12.176 12.176,12.176h29.648c6.714,0 12.176,-5.462 12.176,-12.176v-29.648c0,-6.714 -5.462,-12.176 -12.176,-12.176zM52,41.824c0,5.611 -4.565,10.176 -10.176,10.176h-29.648c-5.611,0 -10.176,-4.565 -10.176,-10.176v-29.648c0,-5.611 4.565,-10.176 10.176,-10.176h29.648c5.611,0 10.176,4.565 10.176,10.176z"></path><path d="M19.92,12h-9.64v28h2.88v-9.2h7.04c1.36,0 2.533,-0.246 3.52,-0.74c0.986,-0.493 1.72,-1.065 2.2,-1.72c0.48,-0.653 0.86,-1.493 1.14,-2.52c0.28,-1.026 0.446,-1.88 0.5,-2.561c0.053,-0.68 0.08,-1.486 0.08,-2.42c0,-2.64 -0.634,-4.773 -1.9,-6.399c-1.267,-1.627 -3.207,-2.44 -5.82,-2.44zM24.74,22.6c-0.014,0.4 -0.107,1 -0.28,1.801c-0.173,0.8 -0.414,1.413 -0.72,1.84c-0.307,0.427 -0.794,0.826 -1.46,1.2c-0.667,0.372 -1.48,0.559 -2.44,0.559h-6.68v-13.2h6.52c3.386,0 5.08,2.027 5.08,6.08c0,0.747 -0.007,1.32 -0.02,1.72z"></path><path d="M41.22,29.44c-1.054,-0.427 -2.114,-0.813 -3.18,-1.16c-1.067,-0.347 -2.027,-0.773 -2.88,-1.28c-0.854,-0.506 -1.28,-1.2 -1.28,-2.08c0,-0.8 0.34,-1.46 1.02,-1.979c0.68,-0.521 1.713,-0.78 3.1,-0.78c1.386,0 2.506,0.334 3.36,1l0.92,-2.521l-0.48,-0.28c-0.32,-0.187 -0.854,-0.38 -1.6,-0.58c-0.747,-0.2 -1.547,-0.3 -2.4,-0.3c-2.427,0 -4.18,0.579 -5.26,1.739c-1.08,1.16 -1.62,2.414 -1.62,3.761c0,1.347 0.493,2.486 1.48,3.42c0.8,0.8 1.727,1.387 2.78,1.76c1.053,0.374 2.1,0.727 3.14,1.06c1.04,0.334 1.92,0.787 2.64,1.36c0.72,0.573 1.08,1.347 1.08,2.32c0,0.973 -0.42,1.72 -1.26,2.239c-0.84,0.521 -1.834,0.78 -2.98,0.78c-1.146,0 -2.16,-0.273 -3.04,-0.82c-0.88,-0.546 -1.374,-1.313 -1.48,-2.3l-2.8,0.12c0.053,1.6 0.733,2.947 2.04,4.04c1.306,1.093 3.113,1.64 5.42,1.64c2.306,0 4.06,-0.554 5.26,-1.659c1.2,-1.106 1.8,-2.406 1.8,-3.9c0,-1.493 -0.367,-2.693 -1.1,-3.6c-0.733,-0.907 -1.627,-1.573 -2.68,-2z"></path></g></g></g></svg>